<?xml version="1.0" encoding="UTF-8" standalone="no"?>
<svg
   xmlns:dc="http://purl.org/dc/elements/1.1/"
   xmlns:cc="http://creativecommons.org/ns#"
   xmlns:rdf="http://www.w3.org/1999/02/22-rdf-syntax-ns#"
   xmlns:svg="http://www.w3.org/2000/svg"
   xmlns="http://www.w3.org/2000/svg"
   xmlns:sodipodi="http://sodipodi.sourceforge.net/DTD/sodipodi-0.dtd"
   xmlns:inkscape="http://www.inkscape.org/namespaces/inkscape"
   viewBox="0 0 678.00001 714.78784"
   height="714.78784"
   width="678"
   xml:space="preserve"
   id="svg6753"
   version="1.1"
   sodipodi:docname="energie.svg"
   inkscape:version="0.92.5 (2060ec1f9f, 2020-04-08)"><sodipodi:namedview
     pagecolor="#ffffff"
     bordercolor="#666666"
     borderopacity="1"
     objecttolerance="10"
     gridtolerance="10"
     guidetolerance="10"
     inkscape:pageopacity="0"
     inkscape:pageshadow="2"
     inkscape:window-width="1627"
     inkscape:window-height="1661"
     id="namedview66"
     showgrid="false"
     inkscape:zoom="0.3301679"
     inkscape:cx="-563.57109"
     inkscape:cy="357.39392"
     inkscape:window-x="1646"
     inkscape:window-y="319"
     inkscape:window-maximized="0"
     inkscape:current-layer="g6793" /><metadata
     id="metadata6759"><rdf:RDF><cc:Work
         rdf:about=""><dc:format>image/svg+xml</dc:format><dc:type
           rdf:resource="http://purl.org/dc/dcmitype/StillImage" /><dc:title /></cc:Work></rdf:RDF></metadata><defs
     id="defs6757"><clipPath
       id="clipPath6799"
       clipPathUnits="userSpaceOnUse"><path
         id="path6797"
         d="M 0,566.93 H 1700.79 V 0 H 0 Z" /></clipPath><clipPath
       id="clipPath6811"
       clipPathUnits="userSpaceOnUse"><path
         id="path6809"
         d="M 0,566.93 H 1700.79 V 0 H 0 Z" /></clipPath><clipPath
       id="clipPath6823"
       clipPathUnits="userSpaceOnUse"><path
         id="path6821"
         d="M 0,566.93 H 1700.79 V 0 H 0 Z" /></clipPath><clipPath
       id="clipPath6835"
       clipPathUnits="userSpaceOnUse"><path
         id="path6833"
         d="M 0,566.93 H 1700.79 V 0 H 0 Z" /></clipPath><clipPath
       id="clipPath7203"
       clipPathUnits="userSpaceOnUse"><path
         id="path7201"
         d="M 0,566.93 H 1700.79 V 0 H 0 Z" /></clipPath></defs><g
     transform="matrix(1.3333333,0,0,-1.3333333,-1541,753.02836)"
     id="g6761"><g
       transform="translate(0,27.587714)"
       style="fill:#917f89;fill-opacity:1"
       id="g6793"><g
         style="fill:#230013;fill-opacity:0.50196081"
         clip-path="url(#clipPath6799)"
         id="g6795"><g
           style="fill:#230013;fill-opacity:0.50196081"
           transform="translate(1664.25,281.5804)"
           id="g6801"><path
             id="path6803"
             style="fill:#230013;fill-opacity:0.50196081;fill-rule:nonzero;stroke:none"
             d="m 0,0 c 0,-140.419 -115.229,-252.9 -255.15,-252.9 -139.921,0 -253.35,113.832 -253.35,254.25 0,140.418 113.429,254.25 253.35,254.25 C -115.229,255.6 0,140.418 0,0" /></g></g></g><g
       transform="translate(0,27.587714)"
       id="g6829"><g
         clip-path="url(#clipPath6835)"
         id="g6831"><g
           transform="translate(1400.3828,243.4085)"
           id="g6837"><path
             id="path6839"
             style="fill:#020202;fill-opacity:1;fill-rule:nonzero;stroke:none"
             d="m 0,0 c 16.174,8.825 33.021,22.055 31.229,42.521 -0.273,3.105 -3.716,5.991 -6.772,3.886 C 9.211,35.906 -6.449,25.934 -23.241,18.067 -39.776,10.322 -54.553,-0.931 -69.985,-10.707 c -8.289,-5.251 -16.675,-10.363 -24.898,-15.718 -7.161,-4.663 -11.207,-13.204 -15.836,-20.151 -9.983,-14.985 -20.481,-29.631 -31.541,-43.841 -6.337,-8.144 -12.848,-16.151 -19.499,-24.041 -3.282,-3.895 -6.477,-7.97 -9.993,-11.654 -3.664,-3.84 -8.282,-7.009 -12.902,-9.634 -5.035,-2.861 -0.506,-10.64 4.543,-7.772 15.496,8.804 26.145,24.097 37.122,37.767 11.115,13.844 21.77,28.058 31.891,42.645 5.445,7.845 10.389,16.09 15.979,23.823 5.439,7.525 15.543,11.883 23.301,16.776 7.991,5.04 15.971,10.099 23.887,15.257 7.521,4.899 14.846,10.969 23.046,14.619 19.044,8.479 36.746,19.463 53.884,31.267 -2.257,1.295 -4.514,2.59 -6.77,3.885 C 23.735,25.317 8.896,15.104 -4.542,7.771 -9.628,4.995 -5.091,-2.778 0,0" /></g><g
           transform="translate(1358.7744,240.1224)"
           id="g6841"><path
             id="path6843"
             style="fill:#020202;fill-opacity:1;fill-rule:nonzero;stroke:none"
             d="m 0,0 c 2.445,1.547 4.902,3.032 7.257,4.712 3.426,2.443 4.717,2.345 8.692,0.803 6.847,-2.655 14.569,-3.964 21.873,-4.746 8.477,-0.909 16.965,-1.565 25.438,-2.58 4.503,-0.54 9.005,-1.089 13.506,-1.649 3.361,-0.417 9.759,0.098 12.278,-2.233 -0.235,1.817 -0.47,3.634 -0.704,5.453 -2.731,-3.63 -5.302,-7.529 -8.666,-10.62 -3.33,-3.061 -7.089,-4.03 -11.418,-4.826 -10.452,-1.92 -21.314,1.231 -31.788,1.932 -5.781,0.387 -5.758,-8.614 0,-9 12.581,-0.843 24.386,-3.767 36.915,-1.058 10.78,2.331 16.465,10.705 22.728,19.029 1.145,1.522 0.634,4.215 -0.704,5.453 C 92.759,3.123 89.92,3.863 86.41,4.33 81.271,5.014 76.123,5.624 70.979,6.254 60.546,7.531 50.133,8.669 39.666,9.593 34.657,10.035 29.71,11.195 24.771,12.127 20.839,12.869 17.375,15.089 13.432,15.708 6.566,16.787 0.888,11.206 -4.542,7.771 -9.425,4.684 -4.914,-3.108 0,0" /></g><g
           transform="translate(1317.6055,214.0325)"
           id="g6845"><path
             id="path6847"
             style="fill:#020202;fill-opacity:1;fill-rule:nonzero;stroke:none"
             d="m 0,0 c 8.552,4.998 17.39,6.16 27.057,7.186 5.261,0.558 10.513,1.265 15.666,2.49 2.753,0.654 5.403,1.637 8.133,2.339 3.986,1.024 5.976,0.217 9.615,-1.267 22.492,-9.177 42.528,-23.566 63.287,-35.986 -0.689,1.693 -1.378,3.387 -2.068,5.081 -1.266,-3.325 -5.686,-4.916 -8.921,-5.251 -4.661,-0.484 -8.882,2.223 -12.945,4.135 -8.212,3.864 -16.221,8.222 -24.563,11.8 -7.78,3.338 -15.487,6.83 -24.088,5.342 C 46.452,-4.948 41.944,-6.693 37.358,-8.03 33.15,-9.257 28.8,-8.602 24.737,-10.013 19.3,-11.902 21.638,-20.6 27.13,-18.691 c 1.943,0.674 3.501,0.237 5.517,0.392 2.698,0.207 5.366,1.067 7.939,1.835 4.897,1.463 10.078,3.793 15.259,3.855 4.611,0.053 9.534,-2.489 13.736,-4.181 5.128,-2.064 10.055,-4.637 15.012,-7.075 4.259,-2.095 8.521,-4.18 12.827,-6.178 4.364,-2.024 8.522,-4.242 13.426,-4.395 8.22,-0.257 16.53,4.033 19.523,11.888 0.704,1.851 -0.474,4.129 -2.068,5.082 -22.205,13.286 -43.722,28.913 -68.12,38.003 -2.53,0.943 -5.459,1.886 -8.173,1.43 C 48.637,21.397 45.235,19.598 41.881,18.737 36.393,17.33 30.82,16.566 25.192,15.995 14.575,14.918 4.81,13.236 -4.543,7.771 -9.541,4.851 -5.017,-2.932 0,0" /></g><g
           transform="translate(1305.2695,176.7532)"
           id="g6849"><path
             id="path6851"
             style="fill:#020202;fill-opacity:1;fill-rule:nonzero;stroke:none"
             d="m 0,0 c 2.763,3.772 5.287,8.948 9.728,10.944 3.629,1.632 7.881,2.468 11.713,3.502 3.948,1.066 7.431,1.786 11.149,2.268 5.163,0.668 10.17,2.378 15.321,2.973 4.294,0.497 7.305,-1.809 10.967,-3.785 4.789,-2.582 9.6,-5.121 14.434,-7.617 10.605,-5.476 18.301,-14.832 28.711,-20.548 0.359,2.742 0.717,5.484 1.076,8.226 C 96.87,-5.152 92.529,-10.474 85.616,-8.319 79.021,-6.266 71.85,-3.706 65.875,-0.231 62.371,1.806 58.905,4.219 54.916,5.22 50.8,6.252 46.644,5.667 42.547,4.864 32.363,2.871 23.246,-0.299 15.098,-6.886 c -4.505,-3.641 1.897,-9.974 6.364,-6.364 7.382,5.967 18.095,9.55 27.576,10.041 7.031,0.364 13.606,-5.807 19.967,-8.381 6.036,-2.442 13.849,-6.758 20.492,-6.185 3.25,0.28 6.426,0.935 9.421,2.202 2.07,0.875 4.358,2.461 6.573,2.857 3.862,0.692 4.295,6.457 1.075,8.225 C 100.433,-1.124 95.43,3.728 90.013,8.082 85.007,12.106 79.746,15.057 74.07,18.02 65.127,22.687 56.142,30.075 45.589,28.385 35.721,26.805 25.687,25.021 16.058,22.297 11.9,21.12 7.132,20.165 3.464,17.784 -1.397,14.63 -4.43,9.105 -7.771,4.542 -11.197,-0.136 -3.392,-4.631 0,0" /></g><g
           transform="translate(1373.1416,169.7767)"
           id="g6853"><path
             id="path6855"
             style="fill:#020202;fill-opacity:1;fill-rule:nonzero;stroke:none"
             d="m 0,0 c -10.135,-9.486 -20.271,-18.987 -29.817,-29.073 -9.329,-9.857 -16.97,-20.866 -25.798,-31.088 -9.219,-10.675 -21.849,-12.799 -34.671,-16.819 -11.443,-3.588 -20.323,-11.629 -27.849,-20.685 -3.677,-4.424 2.656,-10.824 6.364,-6.363 4.004,4.817 8.306,9.532 13.464,13.143 4.978,3.484 10.284,5.221 16.081,6.815 12.489,3.432 24.27,7.466 32.975,17.545 8.629,9.991 16.086,20.774 25.176,30.427 9.727,10.331 20.084,20.04 30.439,29.734 C 10.602,-2.397 4.228,3.957 0,0" /></g><g
           transform="translate(1377.8213,190.638)"
           id="g6857"><path
             id="path6859"
             style="fill:#020202;fill-opacity:1;fill-rule:nonzero;stroke:none"
             d="m 0,0 c 4.815,3.878 11.745,8.141 18.035,5.086 5.914,-2.872 -0.658,-9.264 -3.121,-12.503 -1.753,-2.305 2.153,-4.549 3.885,-2.271 3.815,5.016 10.352,12.972 2.798,17.963 C 13.296,13.759 3.559,8.61 -3.182,3.182 -5.437,1.365 -2.235,-1.801 0,0" /></g><g
           transform="translate(1340.5264,158.5677)"
           id="g6861"><path
             id="path6863"
             style="fill:#020202;fill-opacity:1;fill-rule:nonzero;stroke:none"
             d="m 0,0 c 5.682,5.227 11.363,10.451 17.046,15.677 2.136,1.964 -1.053,5.14 -3.183,3.181 C 8.182,13.634 2.499,8.408 -3.182,3.183 -5.317,1.218 -2.129,-1.959 0,0" /></g><g
           transform="translate(1333.5098,168.9349)"
           id="g6865"><path
             id="path6867"
             style="fill:#020202;fill-opacity:1;fill-rule:nonzero;stroke:none"
             d="m 0,0 c 1.054,-4.055 1.49,-8.915 1.496,-13.146 0.006,-4.978 -1.915,-8.327 -4.869,-12.195 -2.343,-3.067 2.865,-6.059 5.181,-3.028 3.166,4.145 5.449,8.124 5.676,13.439 C 7.712,-9.631 7.12,-3.541 5.785,1.595 4.814,5.329 -0.975,3.746 0,0" /></g><g
           transform="translate(1309.8965,149.2288)"
           id="g6869"><path
             id="path6871"
             style="fill:#020202;fill-opacity:1;fill-rule:nonzero;stroke:none"
             d="M 0,0 C -5.85,-6.316 -5.521,-14.753 -5.505,-22.829 -5.477,-35.99 -8.49,-46.622 -19.68,-54.65 c -1.554,-1.116 -0.058,-3.719 1.515,-2.59 9.25,6.636 14.511,15.336 15.446,26.71 0.76,9.242 -2.084,20.931 4.84,28.409 C 3.432,-0.706 1.315,1.421 0,0" /></g><g
           transform="translate(1585.0977,356.7562)"
           id="g6873"><path
             id="path6875"
             style="fill:#000000;fill-opacity:1;fill-rule:nonzero;stroke:none"
             d="m 0,0 c 0.601,0.77 -0.12,1.875 -1.068,1.64 -11.892,-2.956 -22.5,-10.566 -32.992,-16.449 -38.588,-21.638 -76.48,-44.553 -113.181,-69.269 -10.964,-7.383 -21.731,-14.854 -32.991,-21.784 -4.848,-2.985 9.177,-6.373 12.134,-6.964 8.737,-1.746 13.994,-3.754 21.887,2.116 8.565,6.37 17.492,12.329 26.27,18.406 18.229,12.623 36.592,25.059 54.552,38.067 9.518,6.894 18.923,13.946 28.122,21.261 C -24.531,-22.849 -10.093,-12.92 0,0" /></g><g
           transform="translate(1535.5,367.43)"
           id="g6877"><path
             id="path6879"
             style="fill:#000000;fill-opacity:1;fill-rule:nonzero;stroke:none"
             d="m 0,0 c 9.198,10.995 8.802,13.005 18,24 0.222,0.265 4.958,6.659 5,7 -6,3 -11,6 -17,11 1,7 2.511,17.916 3.098,25.843 L -9.739,35.015 C -2.548,31.666 2.323,28.283 9,24 4.914,16.144 3.22,7.683 -0.26,-0.46 Z" /></g><g
           transform="translate(1488.7061,348.9612)"
           id="g6881"><path
             id="path6883"
             style="fill:#000000;fill-opacity:1;fill-rule:nonzero;stroke:none"
             d="m 0,0 c -0.92,14.396 -2.605,15.563 -3.526,29.959 -0.022,0.347 -1.004,8.287 -1.211,8.562 -6.466,-2.074 -12.201,-3.442 -20.057,-4.077 -4.132,5.741 -10.611,14.658 -15.689,20.775 l 9.047,-36.9 c 7.578,2.662 13.486,3.664 21.337,5.292 C -7.626,15.079 -2.985,7.797 0.13,-0.515 Z" /></g><g
           transform="translate(1535.5,207.43)"
           id="g6885"><path
             id="path6887"
             style="fill:#000000;fill-opacity:1;fill-rule:nonzero;stroke:none"
             d="m 0,0 c 9.198,10.995 8.802,13.005 18,24 0.222,0.265 4.958,6.659 5,7 -6,3 -11,6 -17,11 1,7 2.511,17.916 3.098,25.844 L -9.739,35.015 C -2.548,31.666 2.323,28.283 9,24 4.914,16.144 3.22,7.683 -0.26,-0.46 Z" /></g><g
           transform="translate(1578.1367,318.8387)"
           id="g6889"><path
             id="path6891"
             style="fill:#000000;fill-opacity:1;fill-rule:nonzero;stroke:none"
             d="m 0,0 c 7.614,-12.146 9.648,-12.39 17.263,-24.535 0.183,-0.293 4.8,-6.774 5.112,-6.919 4.708,4.78 9.105,8.608 15.715,12.769 6.348,-3.114 16.264,-7.924 23.621,-10.932 l -25.4,28.059 C 30.903,-7.362 26.181,-10.949 20.044,-15.976 13.835,-9.662 6.312,-5.436 -0.357,0.39 Z" /></g><g
           transform="translate(1486.3525,432.2366)"
           id="g6893"><path
             id="path6895"
             style="fill:#000000;fill-opacity:1;fill-rule:nonzero;stroke:none"
             d="m 0,0 c -1.672,14.329 -3.417,15.405 -5.089,29.733 -0.04,0.346 -1.436,8.224 -1.657,8.487 -6.349,-2.409 -12.005,-4.075 -19.816,-5.121 -4.427,5.517 -11.365,14.083 -16.756,19.925 l 10.966,-36.376 c 7.428,3.057 13.276,4.366 21.032,6.403 C -8.404,14.659 -3.39,7.63 0.156,-0.507 Z" /></g><g
           transform="translate(1418.916,356.9193)"
           id="g6897"><path
             id="path6899"
             style="fill:#000000;fill-opacity:1;fill-rule:nonzero;stroke:none"
             d="m 0,0 c -13.977,3.574 -15.606,2.331 -29.583,5.905 -0.336,0.086 -8.191,1.605 -8.517,1.493 -0.025,-6.79 -0.497,-12.668 -2.32,-20.335 -6.736,-2.155 -17.22,-5.563 -24.606,-8.501 l 37.889,-2.798 c -0.19,8.029 0.682,13.958 1.56,21.928 8.88,-0.285 17.238,1.878 26.106,2.272 z" /></g><g
           transform="translate(1620.9395,191.6673)"
           id="g6901"><path
             id="path6903"
             style="fill:#000000;fill-opacity:1;fill-rule:nonzero;stroke:none"
             d="m 0,0 c 1.092,14.385 -0.415,15.774 0.678,30.158 0.026,0.347 0.158,8.347 -0.008,8.648 -6.691,-1.154 -12.562,-1.71 -20.429,-1.246 -3.293,6.259 -8.469,15.992 -12.646,22.756 l 3.824,-37.8 c 7.875,1.583 13.864,1.753 21.866,2.272 1.262,-8.794 4.844,-16.65 6.772,-25.314 z" /></g><g
           transform="translate(1537.9395,120.8411)"
           id="g6905"><path
             id="path6907"
             style="fill:#000000;fill-opacity:1;fill-rule:nonzero;stroke:none"
             d="m 0,0 c 12.011,7.825 12.22,9.863 24.23,17.688 0.29,0.189 6.689,4.918 6.829,5.233 -4.862,4.623 -8.766,8.953 -13.041,15.489 3.003,6.402 7.638,16.4 10.517,23.809 L 0.924,36.332 C 6.821,31.027 10.491,26.368 15.623,20.319 9.419,14.001 5.325,6.405 -0.384,-0.364 Z" /></g><g
           transform="translate(1400.5,464.8358)"
           id="g6909"><path
             id="path6911"
             style="fill:#000000;fill-opacity:1;fill-rule:nonzero;stroke:none"
             d="m 0,0 c -5.788,13.213 -7.771,13.733 -13.56,26.946 -0.139,0.319 -3.778,7.444 -4.066,7.632 -5.366,-4.161 -10.288,-7.408 -17.453,-10.691 -5.846,3.981 -14.985,10.144 -21.849,14.155 l 21.122,-31.58 c 6.211,5.095 11.419,8.057 18.241,12.271 5.243,-7.171 12.093,-12.427 17.863,-19.172 z" /></g><g
           transform="translate(1320.0586,416.3553)"
           id="g6913"><path
             id="path6915"
             style="fill:#000000;fill-opacity:1;fill-rule:nonzero;stroke:none"
             d="m 0,0 c -13.245,5.716 -15.05,4.743 -28.294,10.459 -0.319,0.138 -7.84,2.868 -8.179,2.808 -1.088,-6.703 -2.472,-12.434 -5.472,-19.722 -6.992,-1.075 -17.879,-2.8 -25.634,-4.547 l 36.985,-8.691 c 1.068,7.961 2.857,13.679 4.971,21.414 8.726,-1.67 17.32,-0.841 26.14,-1.839 z" /></g><g
           transform="translate(1407.6729,403.4212)"
           id="g6917"><path
             id="path6919"
             style="fill:#000000;fill-opacity:1;fill-rule:nonzero;stroke:none"
             d="m 0,0 c -7.784,12.145 -9.824,12.348 -17.608,24.493 -0.188,0.293 -4.896,6.761 -5.21,6.902 -4.65,-4.949 -9.003,-8.926 -15.566,-13.29 -6.397,3.018 -16.387,7.675 -23.794,10.563 L -36.375,0.781 c 5.337,6.003 10.018,9.744 16.096,14.974 6.3,-6.264 13.888,-10.382 20.642,-16.142 z" /></g><g
           transform="translate(1453.7793,147.762)"
           id="g6921"><path
             id="path6923"
             style="fill:#000000;fill-opacity:1;fill-rule:nonzero;stroke:none"
             d="m 0,0 c 14.23,-1.726 15.7,-0.299 29.932,-2.024 0.342,-0.042 8.285,-0.532 8.593,-0.381 -0.752,6.666 -0.959,12.493 -0.033,20.248 6.415,2.974 16.393,7.652 23.361,11.477 L 24.062,27.238 C 25.17,19.384 24.985,13.456 25.029,5.523 16.216,4.672 8.196,1.484 -0.527,-0.032 Z" /></g></g></g></g></svg>