<?xml version="1.0" encoding="UTF-8" standalone="no"?>
<svg
   xmlns:dc="http://purl.org/dc/elements/1.1/"
   xmlns:cc="http://creativecommons.org/ns#"
   xmlns:rdf="http://www.w3.org/1999/02/22-rdf-syntax-ns#"
   xmlns:svg="http://www.w3.org/2000/svg"
   xmlns="http://www.w3.org/2000/svg"
   xmlns:sodipodi="http://sodipodi.sourceforge.net/DTD/sodipodi-0.dtd"
   xmlns:inkscape="http://www.inkscape.org/namespaces/inkscape"
   viewBox="0 0 678.00001 714.78784"
   height="714.78784"
   width="678"
   xml:space="preserve"
   id="svg5360"
   version="1.1"
   sodipodi:docname="ontspannen.svg"
   inkscape:version="0.92.5 (2060ec1f9f, 2020-04-08)"><sodipodi:namedview
     pagecolor="#ffffff"
     bordercolor="#666666"
     borderopacity="1"
     objecttolerance="10"
     gridtolerance="10"
     guidetolerance="10"
     inkscape:pageopacity="0"
     inkscape:pageshadow="2"
     inkscape:window-width="2345"
     inkscape:window-height="1299"
     id="namedview44"
     showgrid="false"
     inkscape:zoom="0.3301679"
     inkscape:cx="-571.14299"
     inkscape:cy="357.39392"
     inkscape:window-x="0"
     inkscape:window-y="39"
     inkscape:window-maximized="0"
     inkscape:current-layer="g5420" /><metadata
     id="metadata5366"><rdf:RDF><cc:Work
         rdf:about=""><dc:format>image/svg+xml</dc:format><dc:type
           rdf:resource="http://purl.org/dc/dcmitype/StillImage" /><dc:title /></cc:Work></rdf:RDF></metadata><defs
     id="defs5364"><clipPath
       id="clipPath5406"
       clipPathUnits="userSpaceOnUse"><path
         id="path5404"
         d="M 0,566.93 H 1700.79 V 0 H 0 Z" /></clipPath><clipPath
       id="clipPath5418"
       clipPathUnits="userSpaceOnUse"><path
         id="path5416"
         d="M 0,566.93 H 1700.79 V 0 H 0 Z" /></clipPath><clipPath
       id="clipPath5430"
       clipPathUnits="userSpaceOnUse"><path
         id="path5428"
         d="M 0,566.93 H 1700.79 V 0 H 0 Z" /></clipPath><clipPath
       id="clipPath5442"
       clipPathUnits="userSpaceOnUse"><path
         id="path5440"
         d="M 0,566.93 H 1700.79 V 0 H 0 Z" /></clipPath><clipPath
       id="clipPath5810"
       clipPathUnits="userSpaceOnUse"><path
         id="path5808"
         d="M 0,566.93 H 1700.79 V 0 H 0 Z" /></clipPath></defs><g
     transform="matrix(1.3333333,0,0,-1.3333333,-800.99998,721.57318)"
     id="g5368"><g
       style="fill:#93b2ac;fill-opacity:1;stroke:none"
       id="g5412"><g
         style="fill:#93b2ac;fill-opacity:1;stroke:none"
         clip-path="url(#clipPath5418)"
         id="g5414"><g
           style="fill:#276559;fill-opacity:1;stroke:none;opacity:0.5"
           transform="translate(1109.25,285.5799)"
           id="g5420"><path
             id="path5422"
             style="fill:#276559;fill-opacity:1;fill-rule:nonzero;stroke:none"
             d="m 0,0 c 0,-140.418 -115.229,-252.9 -255.15,-252.9 -139.921,0 -253.35,113.832 -253.35,254.25 0,140.419 113.429,254.25 253.35,254.25 C -115.229,255.6 0,140.418 0,0" /></g></g></g><g
       id="g5436"><g
         clip-path="url(#clipPath5442)"
         id="g5438"><g
           transform="translate(801.1924,374.5794)"
           id="g5532"><path
             id="path5534"
             style="fill:#020202;fill-opacity:1;fill-rule:nonzero;stroke:none"
             d="m 0,0 c -3.468,14.429 -5.787,29.174 -6.498,44.005 -0.684,14.294 0.068,28.699 5.626,42.054 5.785,13.899 15.027,26.754 26.393,36.617 11.662,10.118 26.558,15.31 41.845,16.578 15.843,1.314 33.054,-1.729 45.444,-12.339 11.201,-9.594 16.179,-26.473 16.784,-40.75 0.732,-17.286 -1.845,-35.15 -11.605,-49.798 -8.856,-13.292 -21.92,-23.989 -35.69,-31.868 -33.49,-19.164 -74.06,-15.582 -110.01,-6.285 -3.725,0.964 -7.161,-3.193 -5.082,-6.61 7.873,-12.941 22.982,-17.97 32.798,-28.971 3.082,-3.454 8.621,0.211 7.521,4.378 -1.633,6.188 -3.021,12.438 -4.654,18.625 -1.477,5.595 -10.161,3.222 -8.679,-2.392 1.633,-6.188 3.021,-12.437 4.655,-18.625 2.506,1.459 5.014,2.919 7.521,4.378 -9.196,10.306 -24.094,15.155 -31.391,27.149 -1.694,-2.203 -3.388,-4.407 -5.082,-6.61 35.521,-9.187 74.761,-12.781 108.986,3.07 15.951,7.387 30.944,18.826 41.95,32.555 11.636,14.514 17.009,31.864 17.789,50.347 0.708,16.768 -2.191,34.21 -11.437,48.567 -9.482,14.723 -27.167,22.123 -43.995,23.996 -16.412,1.826 -34.606,-1.214 -49.324,-8.814 C 19.16,131.665 7.344,118.55 -1.299,104.651 -10.965,89.106 -15.484,72.412 -15.695,54.164 -15.915,35.192 -13.105,16.024 -8.679,-2.393 -7.326,-8.021 1.355,-5.638 0,0" /></g><g
           transform="translate(765.2178,361.2615)"
           id="g5536"><path
             id="path5538"
             style="fill:#020202;fill-opacity:1;fill-rule:nonzero;stroke:none"
             d="m 0,0 c -16.598,-5.037 -32.02,-14.236 -43.768,-27.084 -10.563,-11.552 -18.757,-28.681 -10.687,-43.844 8.377,-15.738 27.902,-19.03 44.027,-17.95 20.398,1.366 40.706,5.219 60.826,8.686 38.596,6.652 79.756,14.856 118.818,7.173 17.283,-3.399 34.754,-10.469 46.724,-23.856 12.55,-14.036 12.099,-31.847 0.566,-46.302 -5.838,-7.317 -13.371,-13.191 -21.45,-17.835 -8.167,-4.695 -16.795,-8.594 -24.164,-14.558 -12.554,-10.159 -20.28,-30.209 -7.478,-43.398 4.041,-4.163 10.401,2.204 6.363,6.364 -5.223,5.383 -4.682,13.484 -1.644,19.887 3.515,7.412 10.541,12.229 17.43,16.233 14.036,8.156 27.991,15.039 38.247,28.132 9.122,11.644 13.824,26.755 8.676,41.157 -5.446,15.237 -18.781,26.488 -32.92,33.529 -31.741,15.807 -69.799,13.83 -103.981,9.583 -19.43,-2.415 -38.69,-5.945 -57.988,-9.214 -18.918,-3.204 -39.046,-7.769 -58.318,-6.716 -9.473,0.516 -19.945,3.889 -25.235,12.366 -5.081,8.142 -2.443,17.929 2.14,25.631 9.801,16.471 28.241,27.885 46.209,33.338 C 7.92,-7.001 5.564,1.689 0,0" /></g><g
           transform="translate(800,214.43)"
           id="g5540"><path
             id="path5542"
             style="fill:#020202;fill-opacity:1;fill-rule:nonzero;stroke:none"
             d="m 0,0 c -0.956,9.596 -2.678,20.564 -7.514,29.065 -4.478,7.872 -13.354,12.804 -21.79,15.274 -3.48,1.019 -6.195,-2.288 -5.535,-5.535 1.812,-8.928 4.308,-17.693 6.256,-26.589 1.882,-8.593 1.621,-17.606 3.83,-26.061 2.122,-8.122 4.981,-15.898 6.878,-24.11 2.08,-8.996 4.476,-17.903 5.285,-27.126 0.721,-8.222 0.938,-16.58 2.985,-24.618 2.091,-8.213 6.553,-14.788 11.335,-21.642 9.858,-14.128 18.211,-29.235 26.128,-44.514 4.564,-8.809 8.816,-17.789 13.674,-26.44 4.142,-7.375 7.158,-14.106 7.468,-22.704 0.208,-5.774 9.209,-5.802 9,0 -0.551,15.271 -8.864,27.038 -15.534,40.276 -8.14,16.155 -16.437,32.277 -26.105,47.582 -4.489,7.108 -10.064,13.726 -14.007,21.149 -4.191,7.887 -4.879,16.894 -5.532,25.638 -1.309,17.514 -5,35.569 -10.746,52.173 -3.2,9.246 -3.212,18.628 -5.026,28.167 -1.994,10.494 -5.086,20.744 -7.211,31.211 -1.845,-1.844 -3.69,-3.69 -5.535,-5.535 6.709,-1.965 14.039,-5.857 17.082,-12.493 C -11.372,16.1 -9.766,7.687 -9,0 -8.432,-5.71 0.574,-5.769 0,0" /></g><g
           transform="translate(790.855,178.1458)"
           id="g5544"><path
             id="path5546"
             style="fill:#020202;fill-opacity:1;fill-rule:nonzero;stroke:none"
             d="m 0,0 c -0.414,2.65 -0.78,5.289 -1.329,7.914 -0.933,4.459 0.376,8.004 2.59,11.863 3.994,6.963 8.409,13.434 11.812,20.754 6.336,13.629 10.841,28.87 20.731,40.496 -2.356,0.304 -4.711,0.608 -7.067,0.911 C 37.399,63.612 22.422,43.094 14.759,26.556 12.34,21.334 20.096,16.758 22.531,22.013 31.788,41.991 47.278,64.532 34.508,86.481 33.145,88.824 29.343,89.628 27.44,87.392 16.122,74.087 11.3,57.188 3.721,41.761 -0.112,33.957 -6.024,27.021 -9.136,18.914 -11.896,11.724 -9.815,4.892 -8.678,-2.393 -7.788,-8.099 0.886,-5.676 0,0" /></g><g
           transform="translate(798,129.43)"
           id="g5548"><path
             id="path5550"
             style="fill:#020202;fill-opacity:1;fill-rule:nonzero;stroke:none"
             d="m 0,0 c -1.624,13.117 0.321,26.147 1.977,39.158 0.423,3.322 0.829,6.648 1.136,9.983 0.239,2.589 0.013,5.101 1.316,7.362 2.324,4.035 6.01,7.653 9.153,11.085 6.457,7.05 13.189,13.805 19.685,20.817 8.638,9.324 17.115,18.685 27.014,26.714 h -6.363 c 4.068,-3.97 1.19,-14.145 -1.046,-18.496 C 47.926,86.997 39.765,78.582 32.197,70.983 25.283,64.041 17.934,58.265 16.902,47.874 16.439,43.215 17.084,38.564 16.979,33.901 16.86,28.675 15.673,23.555 15.6,18.302 c -0.081,-5.794 8.919,-5.796 9,0 0.073,5.251 1.275,10.369 1.379,15.599 0.103,5.166 -1.021,10.676 0.278,15.749 1.436,5.609 6.573,9.324 10.523,13.199 4.343,4.261 8.526,8.696 12.44,13.355 5.883,7.002 12.077,14.542 14.248,23.612 1.675,6.996 2.429,16.188 -3.187,21.667 -1.872,1.828 -4.452,1.55 -6.363,0 C 43.573,113.093 34.804,103.236 25.748,93.525 19.079,86.375 12.129,79.543 5.629,72.23 2.339,68.529 -1.121,64.645 -3.734,60.422 -6.867,55.36 -5.972,47.718 -6.679,41.893 -8.37,27.965 -10.739,14.048 -9,0 -8.298,-5.673 0.711,-5.743 0,0" /></g><g
           transform="translate(826.6372,112.3236)"
           id="g5552"><path
             id="path5554"
             style="fill:#020202;fill-opacity:1;fill-rule:nonzero;stroke:none"
             d="m 0,0 c -2.34,3.999 -5.85,8.133 -5.751,12.966 0.073,3.593 0.687,7.275 1.168,10.83 1.087,8.011 2.977,16.118 4.856,23.973 0.977,4.084 3.307,5.84 6.386,8.509 3.324,2.881 6.629,5.783 9.91,8.713 8.884,7.935 16.688,16.915 25.475,24.934 -2.506,1.459 -5.013,2.919 -7.52,4.378 -0.452,-2.186 -0.184,-4.553 -0.141,-6.762 0.033,-1.691 0.075,-3.383 0.08,-5.073 0.002,-0.515 -0.074,-3.22 0.061,-2.165 C 33.453,71.913 27.176,64.819 21.408,58.919 16.469,53.867 12.392,51.271 10.846,44.012 8.546,33.207 6.865,22.651 9.804,11.795 11.316,6.21 20,8.58 18.482,14.188 c -2.585,9.546 -1.321,20.536 1.613,29.942 0.831,2.664 2.693,4.103 4.8,5.867 2.952,2.47 5.348,5.304 7.745,8.312 2.168,2.718 4.637,5.33 6.625,8.176 2.288,3.275 3.327,7.66 3.958,11.569 0.395,2.437 0.242,4.942 0.2,7.401 -0.025,1.506 -0.065,3.012 -0.087,4.518 -0.008,0.625 0.228,3.688 -0.134,1.937 0.911,4.406 -4.115,7.486 -7.521,4.378 C 26.125,87.57 17.579,77.885 7.884,69.289 1.013,63.197 -6.674,58.484 -8.656,48.996 c -1.836,-8.791 -3.947,-17.494 -5.084,-26.41 -0.481,-3.77 -1.278,-7.814 -1.004,-11.629 0.411,-5.751 4.162,-10.698 6.973,-15.499 C -4.847,-9.538 2.935,-5.014 0,0" /></g><g
           transform="translate(853.1611,167.2337)"
           id="g5556"><path
             id="path5558"
             style="fill:#020202;fill-opacity:1;fill-rule:nonzero;stroke:none"
             d="m 0,0 c 4.482,-12.66 8.974,-25.318 14.26,-37.671 2.615,-6.111 5.44,-12.134 8.529,-18.02 3.273,-6.24 7.949,-12.266 9.836,-19.094 3.55,-12.848 -2.371,-25.453 -0.992,-38.224 1.412,-13.071 7.878,-24.572 14.359,-35.745 2.904,-5.008 10.686,-0.481 7.771,4.543 -6.226,10.732 -14.276,23.351 -13.222,36.3 1.008,12.375 4.272,24.829 0.303,37.055 -1.931,5.948 -5.626,11.098 -8.595,16.548 -3.343,6.137 -6.395,12.429 -9.201,18.829 -5.423,12.37 -9.864,25.148 -14.37,37.872 C 6.758,7.814 -1.94,5.479 0,0" /></g><g
           transform="translate(838.4497,177.5071)"
           id="g5560"><path
             id="path5562"
             style="fill:#020202;fill-opacity:1;fill-rule:nonzero;stroke:none"
             d="m 0,0 c -1.507,5.517 -2.61,12.515 1.629,17.179 4.44,4.883 7.262,-2.772 9.16,-6.17 1.412,-2.529 5.299,-0.262 3.885,2.271 C 11.844,18.347 7.54,26.848 0.566,22.21 -7.119,17.1 -6.461,6.571 -4.339,-1.196 -3.577,-3.986 0.766,-2.803 0,0" /></g><g
           transform="translate(851.7803,134.1868)"
           id="g5564"><path
             id="path5566"
             style="fill:#020202;fill-opacity:1;fill-rule:nonzero;stroke:none"
             d="m 0,0 c -2.313,6.713 -4.624,13.426 -6.935,20.14 -0.937,2.721 -5.286,1.551 -4.339,-1.197 C -8.963,12.229 -6.652,5.517 -4.34,-1.196 -3.402,-3.918 0.946,-2.748 0,0" /></g><g
           transform="translate(840.8032,131.5706)"
           id="g5568"><path
             id="path5570"
             style="fill:#020202;fill-opacity:1;fill-rule:nonzero;stroke:none"
             d="m 0,0 c 3.765,-0.437 8.044,-1.82 11.552,-3.277 3.761,-1.562 5.506,-4.247 7.413,-7.685 1.874,-3.377 7.058,-0.354 5.181,3.028 -2.334,4.208 -4.789,7.7 -9.284,9.748 C 10.3,3.894 4.961,5.424 0,6 -3.829,6.444 -3.797,0.44 0,0" /></g><g
           transform="translate(848.3408,104.3636)"
           id="g5572"><path
             id="path5574"
             style="fill:#020202;fill-opacity:1;fill-rule:nonzero;stroke:none"
             d="m 0,0 c 3.136,-7.234 10.581,-9.748 17.363,-12.493 11.016,-4.459 18.211,-10.884 20.788,-22.949 0.403,-1.888 3.295,-1.089 2.893,0.796 -2.23,10.442 -7.94,18.155 -17.582,22.774 C 16.106,-8.35 6.172,-6.747 2.59,1.514 1.824,3.28 -0.761,1.755 0,0" /></g></g></g></g></svg>