<?xml version="1.0" encoding="UTF-8" standalone="no"?>
<svg
   xmlns:dc="http://purl.org/dc/elements/1.1/"
   xmlns:cc="http://creativecommons.org/ns#"
   xmlns:rdf="http://www.w3.org/1999/02/22-rdf-syntax-ns#"
   xmlns:svg="http://www.w3.org/2000/svg"
   xmlns="http://www.w3.org/2000/svg"
   xmlns:sodipodi="http://sodipodi.sourceforge.net/DTD/sodipodi-0.dtd"
   xmlns:inkscape="http://www.inkscape.org/namespaces/inkscape"
   version="1.1"
   id="svg2"
   xml:space="preserve"
   width="678"
   height="714.78784"
   viewBox="0 0 678.00001 714.78784"
   sodipodi:docname="orienteren.svg"
   inkscape:version="0.92.5 (2060ec1f9f, 2020-04-08)"><sodipodi:namedview
     pagecolor="#ffffff"
     bordercolor="#666666"
     borderopacity="1"
     objecttolerance="10"
     gridtolerance="10"
     guidetolerance="10"
     inkscape:pageopacity="0"
     inkscape:pageshadow="2"
     inkscape:window-width="3081"
     inkscape:window-height="1407"
     id="namedview137"
     showgrid="false"
     inkscape:zoom="0.93385584"
     inkscape:cx="119.21782"
     inkscape:cy="267.01564"
     inkscape:window-x="359"
     inkscape:window-y="219"
     inkscape:window-maximized="0"
     inkscape:current-layer="g74" /><metadata
     id="metadata8"><rdf:RDF><cc:Work
         rdf:about=""><dc:format>image/svg+xml</dc:format><dc:type
           rdf:resource="http://purl.org/dc/dcmitype/StillImage" /><dc:title /></cc:Work></rdf:RDF></metadata><defs
     id="defs6"><clipPath
       clipPathUnits="userSpaceOnUse"
       id="clipPath48"><path
         d="M 0,566.93 H 1700.79 V 0 H 0 Z"
         id="path46" /></clipPath><clipPath
       clipPathUnits="userSpaceOnUse"
       id="clipPath60"><path
         d="M 0,566.93 H 1700.79 V 0 H 0 Z"
         id="path58" /></clipPath><clipPath
       clipPathUnits="userSpaceOnUse"
       id="clipPath72"><path
         d="M 0,566.93 H 1700.79 V 0 H 0 Z"
         id="path70" /></clipPath><clipPath
       clipPathUnits="userSpaceOnUse"
       id="clipPath84"><path
         d="M 0,566.93 H 1700.79 V 0 H 0 Z"
         id="path82" /></clipPath><clipPath
       clipPathUnits="userSpaceOnUse"
       id="clipPath452"><path
         d="M 0,566.93 H 1700.79 V 0 H 0 Z"
         id="path450" /></clipPath></defs><g
     id="g10"
     transform="matrix(1.3333333,0,0,-1.3333333,-60.999998,730.36102)"><g
       id="g66"
       style="opacity:1"><g
         id="g68"
         clip-path="url(#clipPath72)"
         style=""><g
           id="g74"
           transform="translate(554.25,291.5799)"
           style=""><path
             d="M 0,0.585938 C 0,-139.832 -115.229,-252.314 -255.15,-252.314 c -139.921,0 -253.35,113.832 -253.35,254.24994 0,140.41906 113.429,254.25006 253.35,254.25006 C -115.229,256.186 0,141.004 0,0.585938"
             style="fill:#7f8767;fill-opacity:1;fill-rule:nonzero;stroke:none;opacity:0.5"
             id="path76" /></g></g></g><g
       id="g78"><g
         id="g80"
         clip-path="url(#clipPath84)"><g
           id="g218"
           transform="translate(418.1401,322.2366)"><path
             d="M 0,0 C 0.187,5.91 -0.332,11.741 -1.402,17.553 -2.101,21.345 -7.884,19.739 -7.188,15.958 -6.214,10.669 -5.83,5.374 -6,0 -6.122,-3.862 -0.122,-3.858 0,0"
             style="fill:#000000;fill-opacity:1;fill-rule:nonzero;stroke:none"
             id="path220" /></g><g
           id="g222"
           transform="translate(408.5029,292.3348)"><path
             d="M 0,0 C 3.528,4.894 5.991,10.377 7.611,16.177 8.652,19.902 2.865,21.492 1.825,17.772 0.33,12.42 -1.927,7.541 -5.181,3.028 -7.442,-0.108 -2.24,-3.107 0,0"
             style="fill:#000000;fill-opacity:1;fill-rule:nonzero;stroke:none"
             id="path224" /></g><g
           id="g226"
           transform="translate(379.0986,282.7718)"><path
             d="M 0,0 C 6.011,-3.202 12.383,-2.769 18.464,0.003 21.973,1.602 18.927,6.775 15.436,5.184 11.397,3.343 7.009,3.06 3.028,5.181 -0.378,6.995 -3.413,1.818 0,0"
             style="fill:#000000;fill-opacity:1;fill-rule:nonzero;stroke:none"
             id="path228" /></g><g
           id="g230"
           transform="translate(361.4946,309.9559)"><path
             d="m 0,0 c 1.795,-5.352 3.938,-10.566 6.769,-15.46 1.933,-3.341 7.12,-0.323 5.181,3.028 C 9.37,-7.973 7.422,-3.283 5.786,1.595 4.564,5.237 -1.232,3.675 0,0"
             style="fill:#000000;fill-opacity:1;fill-rule:nonzero;stroke:none"
             id="path232" /></g><g
           id="g234"
           transform="translate(357.2251,344.389)"><path
             d="m 0,0 c 0.468,-5.766 1.047,-11.512 1.863,-17.239 0.542,-3.808 6.325,-2.188 5.786,1.594 C 6.909,-10.451 6.424,-5.228 6,0 5.69,3.822 -0.313,3.855 0,0"
             style="fill:#000000;fill-opacity:1;fill-rule:nonzero;stroke:none"
             id="path236" /></g><g
           id="g238"
           transform="translate(341.8945,332.1912)"><path
             d="M 0,0 C 1.652,6.13 3.804,12.096 8.276,16.758 10.95,19.545 6.713,23.794 4.034,21.001 -1.157,15.589 -3.862,8.734 -5.786,1.595 -6.791,-2.138 -1.005,-3.73 0,0"
             style="fill:#000000;fill-opacity:1;fill-rule:nonzero;stroke:none"
             id="path240" /></g><g
           id="g242"
           transform="translate(330.8096,303.7982)"><path
             d="M 0,0 C 4.168,5.036 6.478,10.921 8.229,17.158 9.273,20.882 3.486,22.471 2.443,18.753 0.991,13.58 -0.768,8.441 -4.243,4.243 -6.687,1.29 -2.465,-2.978 0,0"
             style="fill:#000000;fill-opacity:1;fill-rule:nonzero;stroke:none"
             id="path244" /></g><g
           id="g246"
           transform="translate(302.1323,301.0013)"><path
             d="M 0,0 C 4.328,2.173 9.342,-1.302 13.508,-2.529 17.22,-3.623 18.805,2.166 15.104,3.256 8.788,5.117 3.465,8.442 -3.028,5.181 -6.479,3.448 -3.445,-1.73 0,0"
             style="fill:#000000;fill-opacity:1;fill-rule:nonzero;stroke:none"
             id="path248" /></g><g
           id="g250"
           transform="translate(299.7017,268.636)"><path
             d="m 0,0 c 2.44,7.365 1.212,14.766 0.656,22.322 -0.281,3.827 -6.283,3.858 -6,0 C -4.83,15.343 -3.53,8.402 -5.786,1.596 -7.002,-2.078 -1.21,-3.653 0,0"
             style="fill:#000000;fill-opacity:1;fill-rule:nonzero;stroke:none"
             id="path252" /></g><g
           id="g254"
           transform="translate(276.7124,248.7747)"><path
             d="m 0,0 c 3.032,4.021 7.877,6.189 12.18,8.543 3.388,1.853 0.364,7.036 -3.029,5.181 C 3.778,10.784 -1.421,8.016 -5.181,3.028 -7.505,-0.055 -2.298,-3.049 0,0"
             style="fill:#000000;fill-opacity:1;fill-rule:nonzero;stroke:none"
             id="path256" /></g><g
           id="g258"
           transform="translate(246.1479,257.678)"><path
             d="m 0,0 c 3.097,-6.542 8.199,-11.827 15.08,-14.295 3.641,-1.306 5.209,4.49 1.595,5.786 -5.41,1.94 -9.1,6.48 -11.494,11.537 C 3.529,6.517 -1.645,3.475 0,0"
             style="fill:#000000;fill-opacity:1;fill-rule:nonzero;stroke:none"
             id="path260" /></g><g
           id="g262"
           transform="translate(237.1812,292.2176)"><path
             d="m 0,0 c 1.806,-6.296 3.25,-12.677 4.652,-19.073 0.827,-3.77 6.612,-2.175 5.786,1.595 C 9.035,-11.083 7.592,-4.701 5.786,1.595 4.723,5.3 -1.069,3.725 0,0"
             style="fill:#000000;fill-opacity:1;fill-rule:nonzero;stroke:none"
             id="path264" /></g><g
           id="g266"
           transform="translate(227.4722,323.0359)"><path
             d="m 0,0 c 2.35,-5.73 4.243,-11.605 5.97,-17.549 1.076,-3.701 6.867,-2.126 5.786,1.595 -1.727,5.943 -3.62,11.819 -5.97,17.549 C 4.34,5.119 -1.467,3.576 0,0"
             style="fill:#000000;fill-opacity:1;fill-rule:nonzero;stroke:none"
             id="path268" /></g><g
           id="g270"
           transform="translate(216.8706,351.0467)"><path
             d="m 0,0 c 2.816,-4.727 4.572,-9.888 6.57,-14.988 1.393,-3.555 7.198,-2.008 5.786,1.595 C 10.173,-7.822 8.257,-2.134 5.181,3.028 3.206,6.342 -1.983,3.329 0,0"
             style="fill:#000000;fill-opacity:1;fill-rule:nonzero;stroke:none"
             id="path272" /></g><g
           id="g274"
           transform="translate(201.7954,376.2337)"><path
             d="m 0,0 c 2.775,-4.248 5.503,-8.524 8.13,-12.865 1.997,-3.299 7.187,-0.286 5.181,3.029 -2.627,4.34 -5.355,8.617 -8.13,12.864 C 3.077,6.249 -2.12,3.245 0,0"
             style="fill:#000000;fill-opacity:1;fill-rule:nonzero;stroke:none"
             id="path276" /></g><g
           id="g278"
           transform="translate(181.2061,378.6761)"><path
             d="m 0,0 c 2.981,3.085 6.599,5.151 9.905,7.816 0.469,0.378 0.913,0.788 1.386,1.162 2.147,1.696 -0.103,-0.058 -0.166,0.734 0.058,-0.723 2.386,-2.658 2.982,-3.323 2.582,-2.882 6.814,1.373 4.243,4.242 -2.653,2.96 -5.28,6.803 -9.46,4.029 C 4.362,11.655 -0.473,8.144 -4.243,4.243 -6.927,1.465 -2.689,-2.783 0,0"
             style="fill:#000000;fill-opacity:1;fill-rule:nonzero;stroke:none"
             id="path280" /></g><g
           id="g282"
           transform="translate(164.6318,355.8587)"><path
             d="m 0,0 c 2.563,4.433 5.403,8.682 8.638,12.655 2.417,2.97 -1.803,7.24 -4.243,4.243 C 0.834,12.524 -2.358,7.911 -5.181,3.028 -7.117,-0.321 -1.934,-3.345 0,0"
             style="fill:#000000;fill-opacity:1;fill-rule:nonzero;stroke:none"
             id="path284" /></g><g
           id="g286"
           transform="translate(155.2637,327.0237)"><path
             d="M 0,0 C 0.704,5.714 2.075,11.289 3.928,16.735 5.175,20.398 -0.619,21.971 -1.857,18.33 -3.894,12.345 -5.228,6.271 -6,0 -6.471,-3.823 -0.467,-3.789 0,0"
             style="fill:#000000;fill-opacity:1;fill-rule:nonzero;stroke:none"
             id="path288" /></g><g
           id="g290"
           transform="translate(404.7993,383.9949)"><path
             d="m 0,0 c 5.34,-11.575 10.681,-23.15 16.021,-34.725 2.02,-4.378 8.486,-0.572 6.476,3.786 C 17.157,-19.364 11.816,-7.79 6.476,3.785 4.457,8.163 -2.01,4.357 0,0"
             style="fill:#000000;fill-opacity:1;fill-rule:nonzero;stroke:none"
             id="path292" /></g><g
           id="g294"
           transform="translate(403.6528,345.6478)"><path
             d="m 0,0 c 8.496,13.808 18.176,26.754 29.041,38.789 3.227,3.575 -2.062,8.895 -5.304,5.303 C 12.455,31.594 2.348,18.126 -6.476,3.786 -9.013,-0.336 -2.528,-4.108 0,0"
             style="fill:#000000;fill-opacity:1;fill-rule:nonzero;stroke:none"
             id="path296" /></g><g
           id="g298"
           transform="translate(402.6104,383.1649)"><path
             d="m 0,0 c 5.67,-11.361 11.341,-22.722 17.012,-34.083 2.155,-4.32 8.627,-0.525 6.476,3.785 C 17.817,-18.937 12.146,-7.576 6.476,3.786 4.32,8.104 -2.151,4.311 0,0"
             style="fill:#000000;fill-opacity:1;fill-rule:nonzero;stroke:none"
             id="path300" /></g><g
           id="g302"
           transform="translate(402.5698,346.0814)"><path
             d="m 0,0 c 7.507,12.756 16.505,24.397 26.958,34.877 3.413,3.421 -1.889,8.727 -5.304,5.303 C 10.771,29.269 1.34,17.067 -6.476,3.785 -8.929,-0.384 -2.449,-4.162 0,0"
             style="fill:#000000;fill-opacity:1;fill-rule:nonzero;stroke:none"
             id="path304" /></g><g
           id="g306"
           transform="translate(403.417,346.6014)"><path
             d="m 0,0 c 7.541,11.111 16.331,21.174 26.252,30.219 3.575,3.259 -1.741,8.551 -5.303,5.303 C 10.559,26.05 1.417,15.417 -6.476,3.785 -9.193,-0.219 -2.698,-3.976 0,0"
             style="fill:#000000;fill-opacity:1;fill-rule:nonzero;stroke:none"
             id="path308" /></g><g
           id="g310"
           transform="translate(403.3892,345.8216)"><path
             d="M 0,0 C 8.507,12.515 18.467,23.838 29.713,33.957 33.309,37.192 27.991,42.482 24.41,39.26 12.689,28.715 2.386,16.822 -6.476,3.786 -9.197,-0.216 -2.701,-3.973 0,0"
             style="fill:#000000;fill-opacity:1;fill-rule:nonzero;stroke:none"
             id="path312" /></g><g
           id="g314"
           transform="translate(425.8833,384.5999)"><path
             d="m 0,0 c -5.056,-5.591 -10.113,-11.182 -15.169,-16.772 -3.231,-3.573 2.057,-8.893 5.303,-5.304 5.056,5.591 10.113,11.182 15.17,16.772 C 8.534,-1.731 3.246,3.589 0,0"
             style="fill:#000000;fill-opacity:1;fill-rule:nonzero;stroke:none"
             id="path316" /></g><g
           id="g318"
           transform="translate(425.2158,391.14)"><path
             d="m 0,0 c -6.544,-7.656 -12.47,-15.771 -17.722,-24.366 -2.523,-4.129 3.961,-7.902 6.476,-3.785 4.922,8.055 10.414,15.671 16.549,22.848 C 8.423,-1.653 3.143,3.676 0,0"
             style="fill:#000000;fill-opacity:1;fill-rule:nonzero;stroke:none"
             id="path320" /></g><g
           id="g322"
           transform="translate(400.415,383.1307)"><path
             d="m 0,0 c 5.883,-11.609 11.767,-23.219 17.65,-34.829 2.183,-4.306 8.655,-0.514 6.476,3.786 C 18.243,-19.434 12.359,-7.824 6.476,3.786 4.294,8.092 -2.179,4.3 0,0"
             style="fill:#000000;fill-opacity:1;fill-rule:nonzero;stroke:none"
             id="path324" /></g><g
           id="g326"
           transform="translate(408.043,381.3553)"><path
             d="m 0,0 c 3.973,-9.147 7.946,-18.295 11.918,-27.443 1.918,-4.416 8.382,-0.601 6.477,3.785 C 14.422,-14.51 10.449,-5.362 6.476,3.786 4.558,8.201 -1.905,4.387 0,0"
             style="fill:#000000;fill-opacity:1;fill-rule:nonzero;stroke:none"
             id="path328" /></g><g
           id="g330"
           transform="translate(184.5625,235.6136)"><path
             d="m 0,0 c 9.552,-21.572 19.123,-43.138 28.869,-64.624 2.784,-6.138 5.583,-12.27 8.4,-18.394"
             style="fill:none;stroke:#000000;stroke-width:1;stroke-linecap:butt;stroke-linejoin:miter;stroke-miterlimit:10;stroke-dasharray:none;stroke-opacity:1"
             id="path332" /></g><g
           id="g334"
           transform="translate(107.9453,403.6155)"><path
             d="m 0,0 c 1.055,-2.686 2.055,-5.686 3.055,-8.686 6,-11 12,-22 17,-33 8,-18 17,-36 24,-54 6,-13 11,-25 18,-38 1,-1 1,-3 1.488,-4.461"
             style="fill:none;stroke:#000000;stroke-width:1;stroke-linecap:butt;stroke-linejoin:miter;stroke-miterlimit:10;stroke-dasharray:none;stroke-opacity:1"
             id="path336" /></g><g
           id="g338"
           transform="translate(429.7476,238.4007)"><path
             d="M 0,0 C -5.225,-14.15 -10.452,-28.301 -15.676,-42.451"
             style="fill:none;stroke:#000000;stroke-width:1;stroke-linecap:butt;stroke-linejoin:miter;stroke-miterlimit:10;stroke-dasharray:none;stroke-opacity:1"
             id="path340" /></g><g
           id="g342"
           transform="translate(494.9453,416.2156)"><path
             d="M 0,0 C -18.945,-49.286 -34.945,-98.286 -53.902,-147.256"
             style="fill:none;stroke:#000000;stroke-width:1;stroke-linecap:butt;stroke-linejoin:miter;stroke-miterlimit:10;stroke-dasharray:none;stroke-opacity:1"
             id="path344" /></g><g
           id="g346"
           transform="translate(176.3457,448.6155)"><path
             d="M 0,0 C 24.75,-88.65 49.05,-176.85 73.883,-264.694"
             style="fill:none;stroke:#000000;stroke-width:2;stroke-linecap:butt;stroke-linejoin:miter;stroke-miterlimit:10;stroke-dasharray:none;stroke-opacity:1"
             id="path348" /></g><g
           id="g350"
           transform="translate(307.8076,202.431)"><path
             d="M 0,0 C -4.112,78.335 -3.662,155.285 -8.612,233.134"
             style="fill:none;stroke:#000000;stroke-width:2;stroke-linecap:butt;stroke-linejoin:miter;stroke-miterlimit:10;stroke-dasharray:none;stroke-opacity:1"
             id="path352" /></g><g
           id="g354"
           transform="translate(370.2954,213.2659)"><path
             d="M 0,0 C 12.326,61.976 26.019,124.375 38.026,186.413 L 49.5,245.7"
             style="fill:none;stroke:#000000;stroke-width:2;stroke-linecap:butt;stroke-linejoin:miter;stroke-miterlimit:10;stroke-dasharray:none;stroke-opacity:1"
             id="path356" /></g><g
           id="g358"
           transform="translate(181.5615,233.6546)"><path
             d="m 0,0 c 13.14,-27.92 25.47,-56.213 35.835,-85.29 1.931,-5.417 10.63,-3.083 8.679,2.393 C 33.889,-53.094 21.239,-24.075 7.771,4.542 5.307,9.779 -2.455,5.216 0,0"
             style="fill:#000000;fill-opacity:1;fill-rule:nonzero;stroke:none"
             id="path360" /></g><g
           id="g362"
           transform="translate(102.3955,400.9642)"><path
             d="m 0,0 c 21.573,-46.009 42.701,-92.23 65.004,-137.894 2.542,-5.204 10.307,-0.647 7.772,4.542 C 50.473,-87.688 29.344,-41.467 7.771,4.542 5.314,9.782 -2.447,5.218 0,0"
             style="fill:#000000;fill-opacity:1;fill-rule:nonzero;stroke:none"
             id="path364" /></g><g
           id="g366"
           transform="translate(226.5029,147.0198)"><path
             d="m 0,0 c 8.462,12.791 17.959,24.769 28.463,35.942 l -4.379,-1.157 c 9.84,-1.688 19.603,-3.968 29.528,-5.116 3.156,-0.365 7.062,-1.369 9.639,0.935 1.035,0.926 1.87,2.289 2.744,3.359 5.843,7.15 11.687,14.301 17.529,21.451 h -6.363 c 4.506,-5.322 11.217,-7.99 16.356,-12.651 5.784,-5.246 10.911,-11.181 16.044,-17.049 1.606,-1.837 4.726,-1.623 6.363,0 12.258,12.148 22.027,26.658 32.463,40.369 h -7.771 c 5.101,-8.447 8.464,-17.859 14.141,-25.959 1.034,-1.476 3.174,-2.856 5.082,-2.067 9.977,4.124 19.678,4.497 30.304,3.439 5.758,-0.574 5.719,8.43 0,9 -11.331,1.128 -22.064,0.634 -32.697,-3.761 1.694,-0.689 3.388,-1.379 5.082,-2.068 -5.677,8.099 -9.04,17.511 -14.141,25.959 -1.901,3.148 -5.772,2.626 -7.771,0 -9.977,-13.108 -19.339,-26.937 -31.055,-38.549 h 6.363 c -5.132,5.869 -10.259,11.803 -16.043,17.05 -5.087,4.613 -11.943,7.438 -16.357,12.65 -1.463,1.73 -4.914,1.774 -6.363,0 -6.791,-8.309 -13.582,-16.62 -20.373,-24.929 1.061,0.439 2.121,0.879 3.182,1.318 -6.552,0.307 -12.963,1.468 -19.395,2.694 -3.747,0.715 -7.492,1.446 -11.25,2.11 -4.027,0.712 -5.584,0.94 -8.466,-1.983 C 10.072,30.047 0.688,17.33 -7.771,4.543 -10.976,-0.302 -3.185,-4.814 0,0"
             style="fill:#000000;fill-opacity:1;fill-rule:nonzero;stroke:none"
             id="path368" /></g><g
           id="g370"
           transform="translate(426.603,237.2093)"><path
             d="m 0,0 c -4.683,-14.374 -9.366,-28.749 -14.049,-43.123 -1.798,-5.52 6.889,-7.885 8.678,-2.393 4.684,14.374 9.367,28.749 14.05,43.123 C 10.477,3.127 1.79,5.492 0,0"
             style="fill:#000000;fill-opacity:1;fill-rule:nonzero;stroke:none"
             id="path372" /></g><g
           id="g374"
           transform="translate(491.7437,416.7274)"><path
             d="m 0,0 c -21.565,-47.557 -38.24,-97.063 -54.43,-146.649 -1.801,-5.518 6.886,-7.883 8.679,-2.393 15.945,48.837 32.282,97.66 53.522,144.5 C 10.145,0.692 2.391,5.273 0,0"
             style="fill:#000000;fill-opacity:1;fill-rule:nonzero;stroke:none"
             id="path376" /></g><g
           id="g378"
           transform="translate(109.7832,400.8997)"><path
             d="m 0,0 c 21.854,17.81 45.297,33.543 69.986,47.147 h -4.543 c 26.703,-13.511 52.003,-29.666 75.375,-48.363 1.912,-1.53 4.473,-1.859 6.364,0 13.409,13.176 28.429,24.35 44.883,33.44 h -4.542 c 21.566,-11.911 42.568,-24.791 62.961,-38.616 1.615,-1.094 4.135,-0.658 5.454,0.704 20.177,20.85 39.509,42.492 57.959,64.884 -2.507,0.662 -5.014,1.324 -7.521,1.986 8.274,-21.429 17.734,-42.365 28.402,-62.708 0.858,-1.636 3.294,-2.72 5.082,-2.068 14.926,5.443 30.106,10.091 45.52,13.939 5.617,1.402 3.238,10.084 -2.392,8.679 -15.414,-3.848 -30.594,-8.497 -45.52,-13.94 1.694,-0.689 3.387,-1.378 5.082,-2.067 -10.308,19.656 -19.501,39.852 -27.496,60.558 -1.09,2.822 -5.152,4.861 -7.521,1.985 -18.45,-22.393 -37.782,-44.034 -57.959,-64.884 1.818,0.235 3.635,0.469 5.453,0.704 -19.988,13.549 -40.588,27.182 -62.132,38.157 -4.698,2.393 -8.862,-1.433 -12.899,-3.87 -4.708,-2.842 -9.3,-5.875 -13.764,-9.087 -9.013,-6.486 -17.495,-13.651 -25.414,-21.432 h 6.364 c -12.129,9.703 -24.694,18.843 -37.762,27.245 -6.625,4.258 -13.363,8.339 -20.21,12.232 -3.16,1.795 -6.343,3.551 -9.547,5.268 -3.184,1.706 -6.766,4.222 -10.215,5.252 C 66.119,56.14 63.487,53.853 60.666,52.261 57.49,50.471 54.337,48.643 51.205,46.779 44.418,42.741 37.735,38.528 31.164,34.147 18.206,25.507 5.708,16.202 -6.364,6.364 -10.856,2.703 -4.455,-3.63 0,0"
             style="fill:#000000;fill-opacity:1;fill-rule:nonzero;stroke:none"
             id="path380" /></g><g
           id="g382"
           transform="translate(252.7329,402.4363)"><path
             d="m 0,0 c 10.323,-72.835 21.811,-145.505 31.453,-218.437 0.175,-1.32 2.277,-1.338 2.1,0 C 23.886,-145.319 12.374,-72.463 2.025,0.558 1.836,1.891 -0.187,1.324 0,0"
             style="fill:#000000;fill-opacity:1;fill-rule:nonzero;stroke:none"
             id="path384" /></g><g
           id="g386"
           transform="translate(361.5957,397.3152)"><path
             d="m 0,0 c -6.579,-71.761 -16.566,-143.196 -21.6,-215.1 -0.095,-1.349 2.006,-1.343 2.1,0 C -14.467,-143.196 -4.479,-71.761 2.1,0 2.223,1.346 0.123,1.337 0,0"
             style="fill:#000000;fill-opacity:1;fill-rule:nonzero;stroke:none"
             id="path388" /></g><g
           id="g390"
           transform="translate(446.2329,400.2947)"><path
             d="m 0,0 c -22.696,-69.213 -39.571,-140.163 -61.2,-209.7 -0.402,-1.294 1.624,-1.846 2.025,-0.558 21.629,69.538 38.504,140.487 61.2,209.699 C 2.447,0.729 0.42,1.28 0,0"
             style="fill:#000000;fill-opacity:1;fill-rule:nonzero;stroke:none"
             id="path392" /></g><g
           id="g394"
           transform="translate(489.9126,102.2747)"><path
             d="m 0,0 c -2.615,10.411 -5.626,20.715 -9.119,30.865 -2.97,8.629 -6.595,15.643 -13.097,22.126 -14.217,14.175 -21.058,30.784 -23.336,50.532 -1.098,9.517 -3.341,18.205 -7.281,26.949 -3.956,8.778 -8.995,17.055 -12.634,25.98 -1.825,4.476 -3.466,9.281 -3.759,14.141 -0.113,1.87 -0.368,4.706 0.418,6.382 0.67,1.427 -0.054,1.609 1.511,1.338 1.337,-0.231 2.352,-2.162 3.175,-3.136 6.724,-7.955 13.841,-15.832 19.358,-24.7 5.516,-8.865 8.371,-18.995 14.181,-27.718 5.914,-8.88 13.263,-16.668 20.604,-24.364 4.005,-4.201 10.362,2.169 6.363,6.363 -7.393,7.752 -14.889,15.553 -20.574,24.69 -5.681,9.131 -8.631,19.537 -14.697,28.478 -6.096,8.984 -13.31,17.758 -20.666,25.728 -6.155,6.669 -15.092,5.307 -17.787,-3.699 -2.826,-9.441 0.59,-19.897 4.305,-28.554 4.248,-9.893 10.016,-19.088 13.972,-29.107 4.188,-10.607 4.169,-21.645 6.444,-32.657 1.962,-9.501 5.736,-18.748 10.905,-26.954 2.983,-4.736 6.466,-9.205 10.337,-13.246 4.078,-4.257 8.149,-7.94 10.695,-13.383 C -15.078,24.071 -11.89,10.391 -8.679,-2.393 -7.269,-8.006 1.414,-5.628 0,0"
             style="fill:#000000;fill-opacity:1;fill-rule:nonzero;stroke:none"
             id="path396" /></g><g
           id="g398"
           transform="translate(448.4785,283.0262)"><path
             d="m 0,0 c 11.844,-6.98 23.735,-13.878 35.605,-20.814 5.688,-3.324 12.473,-6.256 17.511,-10.507 4.825,-4.072 5.218,-13.354 6.225,-19.195 4.844,-28.09 4.471,-57.187 14.912,-84.094 2.073,-5.342 10.779,-3.019 8.679,2.393 -11.1,28.604 -9.957,59.687 -15.9,89.417 -1.196,5.978 -2.236,12.814 -6.823,17.261 -4.889,4.742 -12.004,7.784 -17.834,11.194 C 29.767,-6.969 17.128,0.355 4.542,7.771 -0.458,10.718 -4.992,2.941 0,0"
             style="fill:#000000;fill-opacity:1;fill-rule:nonzero;stroke:none"
             id="path400" /></g><g
           id="g402"
           transform="translate(421.7202,217.9017)"><path
             d="m 0,0 c 1.309,-6.154 0.182,-13.73 3.11,-19.541 1.868,-3.703 6.362,-2.155 8.993,0.191 3.414,3.045 4.464,9.218 4.876,13.56 C 17.633,1.081 15.101,7.062 11.885,13.021 10.51,15.57 6.623,13.301 8,10.75 12.059,3.226 14.449,-5.162 10.586,-13.327 9.839,-14.905 8.903,-15.851 7.569,-16.818 6.277,-17.756 7.223,-17.382 7.03,-17.089 6.425,-16.17 6.238,-14.062 6.01,-12.969 5.036,-8.305 5.333,-3.478 4.339,1.195 3.737,4.026 -0.602,2.829 0,0"
             style="fill:#000000;fill-opacity:1;fill-rule:nonzero;stroke:none"
             id="path404" /></g><g
           id="g406"
           transform="translate(427.8066,198.0482)"><path
             d="m 0,0 c 0.058,-5.735 0.853,-12.604 3.375,-17.851 3.052,-6.346 9.095,1.14 11.851,3.61 2.161,1.937 -1.03,5.111 -3.182,3.181 -1.002,-0.897 -3.411,-4.493 -4.755,-4.509 0.049,-0.129 0.097,-0.258 0.146,-0.386 -0.146,0.537 -0.296,1.074 -0.45,1.609 -0.27,0.949 -0.553,1.893 -0.822,2.841 C 5.08,-7.682 4.54,-3.985 4.5,0 4.471,2.894 -0.029,2.901 0,0"
             style="fill:#000000;fill-opacity:1;fill-rule:nonzero;stroke:none"
             id="path408" /></g><g
           id="g410"
           transform="translate(449.9238,255.1819)"><path
             d="m 0,0 c 3.769,-3.585 9.27,-6.056 12.024,-10.376 1.489,-2.336 2.774,-4.824 4.155,-7.225 2.225,-3.868 3.187,-4.775 -0.295,-8.059 -2.111,-1.991 1.075,-5.169 3.182,-3.182 1.571,1.481 4.628,3.35 4.825,5.757 0.24,2.941 -3.374,6.969 -4.749,9.36 -1.676,2.913 -3.141,6.63 -5.534,9.01 C 10.594,-1.717 6.339,0.18 3.182,3.183 1.083,5.178 -2.104,2.001 0,0"
             style="fill:#000000;fill-opacity:1;fill-rule:nonzero;stroke:none"
             id="path412" /></g><g
           id="g414"
           transform="translate(473.1523,230.6644)"><path
             d="M 0,0 C 3.031,2.637 6.511,4.46 10.378,5.53 13.166,6.301 11.982,10.644 9.182,9.869 4.559,8.59 0.433,6.327 -3.182,3.183 -5.371,1.278 -2.177,-1.894 0,0"
             style="fill:#000000;fill-opacity:1;fill-rule:nonzero;stroke:none"
             id="path416" /></g><g
           id="g418"
           transform="translate(492.627,177.6898)"><path
             d="m 0,0 c 1.921,-7.288 1.062,-14.587 -2.518,-21.216 -0.918,-1.698 1.672,-3.215 2.591,-1.513 3.963,7.336 4.946,15.464 2.82,23.527 C 2.401,2.663 -0.494,1.872 0,0"
             style="fill:#000000;fill-opacity:1;fill-rule:nonzero;stroke:none"
             id="path420" /></g><g
           id="g422"
           transform="translate(129.1382,93.8372)"><path
             d="m 0,0 c 2.893,11.515 6.19,22.98 10.27,34.136 1.844,5.044 4.208,9.356 7.968,13.218 3.484,3.58 6.972,7.023 10.04,10.983 6.149,7.935 10.839,16.907 13.807,26.504 3.297,10.658 2.915,21.898 5.853,32.595 5.394,19.638 22.255,36.999 21.643,58.178 -0.212,7.362 -4.39,18.124 -13.795,14.165 -4.526,-1.905 -7.493,-6.786 -10.533,-10.418 -3.459,-4.133 -6.947,-8.246 -10.249,-12.507 -3.605,-4.652 -7.002,-9.472 -9.683,-14.724 -2.756,-5.4 -4.791,-11.129 -7.554,-16.53 -4.618,-9.027 -10.63,-16.503 -17.587,-23.826 -3.99,-4.197 2.364,-10.572 6.364,-6.363 5.233,5.507 10.329,11.164 14.427,17.586 4.816,7.546 7.77,15.849 11.727,23.816 4.383,8.83 10.72,16.385 17.007,23.899 1.595,1.907 8.059,11.316 10.026,9.835 1.088,-0.818 0.871,-4.554 0.874,-5.808 0.008,-3.148 -0.623,-6.236 -1.482,-9.251 C 53.876,147.083 40.831,132.009 37.764,112.771 36.26,103.334 35.79,93.993 32.642,84.88 29.493,75.762 24.473,67.18 18.022,60.004 14.84,56.463 11.184,53.377 8.266,49.599 5.403,45.891 3.513,41.674 1.875,37.31 -2.392,25.939 -5.722,14.162 -8.678,2.393 -10.09,-3.226 -1.412,-5.623 0,0"
             style="fill:#000000;fill-opacity:1;fill-rule:nonzero;stroke:none"
             id="path424" /></g><g
           id="g426"
           transform="translate(156.3511,286.7523)"><path
             d="m 0,0 c -12.336,-7.27 -24.723,-14.451 -37.083,-21.679 -6.049,-3.536 -13.552,-6.675 -18.584,-11.631 -4.563,-4.494 -5.621,-11.253 -6.822,-17.261 -5.944,-29.73 -4.8,-60.813 -15.9,-89.417 -2.096,-5.404 6.602,-7.744 8.679,-2.393 10.441,26.907 10.067,56.004 14.912,84.094 0.952,5.523 1.337,14.436 5.495,18.613 2.435,2.446 6.086,3.963 9.033,5.695 3.067,1.801 6.136,3.599 9.208,5.394 11.87,6.935 23.761,13.834 35.604,20.814 C 9.529,-4.833 5.006,2.95 0,0"
             style="fill:#000000;fill-opacity:1;fill-rule:nonzero;stroke:none"
             id="path428" /></g><g
           id="g430"
           transform="translate(188.7886,219.4886)"><path
             d="m 0,0 c -0.909,-8.547 -2.198,-16.796 -4.958,-24.961 1.102,0.448 2.203,0.897 3.305,1.345 -8.793,5.749 -11.244,17.57 -6.483,26.733 1.333,2.567 -2.549,4.845 -3.886,2.272 -5.931,-11.414 -2.813,-25.757 8.098,-32.89 1.282,-0.839 2.864,0.039 3.305,1.345 C 2.265,-17.625 3.551,-8.923 4.5,0 4.806,2.877 0.303,2.855 0,0"
             style="fill:#000000;fill-opacity:1;fill-rule:nonzero;stroke:none"
             id="path432" /></g><g
           id="g434"
           transform="translate(179.0659,198.0032)"><path
             d="m 0,0 c -0.04,-3.988 -0.578,-7.678 -1.664,-11.505 -0.22,-0.777 -0.453,-1.551 -0.675,-2.327 -0.152,-0.524 -0.3,-1.049 -0.444,-1.575 -0.205,-0.675 -0.207,-0.73 -0.007,-0.163 -1.15,-0.058 -3.862,3.711 -4.754,4.51 -2.151,1.929 -5.344,-1.244 -3.182,-3.181 2.775,-2.488 8.777,-9.946 11.851,-3.61 C 3.659,-12.627 4.442,-5.717 4.5,0 4.529,2.896 0.029,2.898 0,0"
             style="fill:#000000;fill-opacity:1;fill-rule:nonzero;stroke:none"
             id="path436" /></g><g
           id="g438"
           transform="translate(157.2666,252.3187)"><path
             d="m 0,0 c -3.125,-2.971 -7.111,-4.849 -10.198,-7.721 -2.545,-2.367 -4.039,-6.19 -5.761,-9.185 -1.338,-2.325 -4.843,-6.24 -4.709,-9.062 0.124,-2.638 3.013,-4.386 4.784,-6.055 2.106,-1.987 5.294,1.189 3.181,3.181 -3.002,2.831 -2.847,3.62 -0.756,7.256 1.532,2.664 2.965,5.437 4.617,8.028 2.734,4.287 8.278,6.814 12.024,10.376 C 5.285,-1.182 2.099,1.997 0,0"
             style="fill:#000000;fill-opacity:1;fill-rule:nonzero;stroke:none"
             id="path440" /></g><g
           id="g442"
           transform="translate(140.4019,227.8021)"><path
             d="m 0,0 c -3.615,3.145 -7.741,5.407 -12.364,6.687 -2.795,0.773 -3.988,-3.568 -1.196,-4.34 3.867,-1.07 7.347,-2.893 10.378,-5.53 C -1.006,-5.075 2.19,-1.905 0,0"
             style="fill:#000000;fill-opacity:1;fill-rule:nonzero;stroke:none"
             id="path444" /></g></g></g><g
       id="g446"
       style="fill:#000000;stroke:#000000" /></g></svg>