<?xml version="1.0" encoding="UTF-8" standalone="no"?>
<svg
   width="160.64525"
   height="160.65317"
   version="1.1"
   id="svg6"
   xmlns="http://www.w3.org/2000/svg"
   xmlns:svg="http://www.w3.org/2000/svg">
  <defs
     id="defs10" />
  <path
     d="m 61.045621,2.3445458 1.807,7.304 a 72.591,72.591 0 0 0 -20.18,8.3460002 l -3.866,-6.45 a 80.02,80.02 0 0 1 22.239,-9.2000002 z m 38.554,0 -1.807,7.304 a 72.591,72.591 0 0 1 20.179999,8.3460002 l 3.891,-6.45 A 80.02,80.02 0 0 0 99.599621,2.3445458 Z m -88.053,36.4590002 a 80.02,80.02 0 0 0 -9.1999997,22.239 l 7.305,1.807 a 72.591,72.591 0 0 1 8.3459997,-20.18 z m -4.0159997,41.516 a 72.666,72.666 0 0 1 0.816,-10.906 l -7.44299999,-1.13 a 80.61,80.61 0 0 0 0,24.072 l 7.44299999,-1.13 a 72.666,72.666 0 0 1 -0.816,-10.906 z m 114.3099987,68.775004 -3.866,-6.45 a 72.591,72.591 0 0 1 -20.155999,8.345 l 1.808,7.304 a 80.02,80.02 0 0 0 22.213999,-9.199 z m 31.275,-68.775004 a 72.666,72.666 0 0 1 -0.816,10.906 l 7.442,1.13 a 80.61,80.61 0 0 0 0,-24.072 l -7.442,1.13 a 72.666,72.666 0 0 1 0.816,10.906 z m 5.183,19.277 -7.304,-1.807 a 72.591,72.591 0 0 1 -8.346,20.180004 l 6.45,3.891 a 80.02,80.02 0 0 0 9.2,-22.264004 z M 91.229621,152.30755 a 73.306,73.306 0 0 1 -21.812,0 l -1.13,7.442 a 80.61,80.61 0 0 0 24.072,0 z m 47.690999,-28.803 a 73.055,73.055 0 0 1 -15.424,15.412 l 4.468,6.062 a 80.447,80.447 0 0 0 17.018,-16.968 z m -15.424,-101.780004 a 73.055,73.055 0 0 1 15.424,15.424 l 6.062,-4.518 a 80.447,80.447 0 0 0 -16.968,-16.968 z m -101.769999,15.424 a 73.055,73.055 0 0 1 15.424,-15.424 l -4.518,-6.062 a 80.447,80.447 0 0 0 -16.967,16.968 z m 127.369999,1.657 -6.45,3.865 a 72.591,72.591 0 0 1 8.345,20.156 l 7.305,-1.807 a 80.02,80.02 0 0 0 -9.2,-22.214 z M 69.415621,8.3455458 a 73.306,73.306 0 0 1 21.812,0 l 1.13,-7.44199999 a 80.61,80.61 0 0 0 -24.071,0 z m -43.826,138.6300042 -15.55,3.628 3.627,-15.55 -7.3299997,-1.72 -3.626,15.55 a 7.53,7.53 0 0 0 9.0489997,9.049 l 15.537,-3.564 z m -17.6839997,-20.355 7.3299997,1.706 2.51,-10.78 A 72.478,72.478 0 0 1 9.6506213,97.791546 l -7.305,1.807 a 79.719,79.719 0 0 0 7.404,19.089004 z m 35.1409997,16.315 -10.78,2.51 1.706,7.33 7.932,-1.846 a 79.719,79.719 0 0 0 19.089,7.405 l 1.807,-7.304 a 72.478,72.478 0 0 1 -19.704,-8.145 z m 37.274,-127.870004 a 65.261,65.261 0 0 0 -55.22,99.988004 l -6.276,26.77 26.77,-6.276 a 65.261,65.261 0 1 0 34.727,-120.480004 z"
     fill="#ffffff"
     id="path2"
     />
</svg>
